<?xml version="1.0" encoding="utf-8"?>
<!-- Generator: Adobe Illustrator 21.1.0, SVG Export Plug-In . SVG Version: 6.00 Build 0)  -->
<svg version="1.1" id="Layer_1" xmlns="http://www.w3.org/2000/svg" xmlns:xlink="http://www.w3.org/1999/xlink" x="0px" y="0px"
	 viewBox="0 0 512 512" style="enable-background:new 0 0 512 512;" xml:space="preserve">
<style type="text/css">
	.st0{fill:#4FC2F8;}
	.st1{fill:none;}
	.st2{enable-background:new    ;}
	.st3{fill:#FFFFFF;}
</style>
<g id="Layer_1_1_">
	<g id="Layer_2_background">
		<g>
			<g>
				<circle class="st0" cx="256.1" cy="255.7" r="239.3"/>
			</g>
		</g>
	</g>
</g>
<g id="Layer_2">
	<g>
		<rect x="120.1" y="134.1" class="st1" width="269.8" height="251.8"/>
	</g>
	<g class="st2">
		<path class="st3" d="M262.3,286.5v-29.6l87-0.2v93.1c-13.3,13-27.1,22.8-41.4,29.3c-14.2,6.6-28.9,9.8-43.9,9.8
			c-20.1,0-37.9-5-53.7-15s-28.2-24.7-37.3-44c-9.2-19.3-13.8-42.4-13.8-69.4c0-27.4,4.6-51.2,13.8-71.5s21.3-35.3,36.2-44.9
			c14.9-9.6,32.6-14.5,53-14.5c15,0,28.2,2.8,39.5,8.4c11.3,5.6,20.6,13.5,27.9,23.8c7.3,10.3,12.8,24.3,16.4,42.2l-24.4,8.2
			c-3.3-14.1-7.5-24.7-12.5-31.7c-5-7-11.6-12.5-19.8-16.5c-8.2-4-17.4-6-27.7-6c-14.9,0-27.8,3.6-38.5,10.9
			c-10.8,7.2-19.4,18.5-26,33.8c-6.6,15.3-9.8,33.9-9.8,55.9c0,33.5,7,58.6,21,75.3c14,16.7,32.2,25.1,54.7,25.1
			c10.7,0,21.7-2.6,32.9-7.7c11.2-5.1,20.1-11.2,26.7-18.3v-46.7H262.3z"/>
	</g>
</g>
</svg>
